<?xml version="1.0" encoding="UTF-8" standalone="no"?>
<svg
   xmlns:dc="http://purl.org/dc/elements/1.1/"
   xmlns:cc="http://creativecommons.org/ns#"
   xmlns:rdf="http://www.w3.org/1999/02/22-rdf-syntax-ns#"
   xmlns:svg="http://www.w3.org/2000/svg"
   xmlns="http://www.w3.org/2000/svg"
   xmlns:sodipodi="http://sodipodi.sourceforge.net/DTD/sodipodi-0.dtd"
   xmlns:inkscape="http://www.inkscape.org/namespaces/inkscape"
   width="139mm"
   height="79mm"
   viewBox="0 0 139 79"
   version="1.1"
   id="svg8"
   inkscape:version="1.0.1 (c497b03c, 2020-09-10)"
   sodipodi:docname="intro.svg">
  <defs
     id="defs2" />
  <sodipodi:namedview
     id="base"
     pagecolor="#ffffff"
     bordercolor="#666666"
     borderopacity="1.0"
     inkscape:pageopacity="0"
     inkscape:pageshadow="2"
     inkscape:zoom="1.3219033"
     inkscape:cx="260.09955"
     inkscape:cy="147.84425"
     inkscape:document-units="mm"
     inkscape:current-layer="g865"
     inkscape:document-rotation="0"
     showgrid="false"
     inkscape:window-width="1252"
     inkscape:window-height="804"
     inkscape:window-x="174"
     inkscape:window-y="23"
     inkscape:window-maximized="0"
     inkscape:snap-global="false" />
  <metadata
     id="metadata5">
    <rdf:RDF>
      <cc:Work
         rdf:about="">
        <dc:format>image/svg+xml</dc:format>
        <dc:type
           rdf:resource="http://purl.org/dc/dcmitype/StillImage" />
        <dc:title></dc:title>
      </cc:Work>
    </rdf:RDF>
  </metadata>
  <g
     inkscape:label="Layer 1"
     inkscape:groupmode="layer"
     id="layer1">
    <g
       id="g865"
       transform="translate(1.0382669,10.797975)">
      <g
         id="g888"
         transform="translate(-31.954643,-36.585751)">
        <path
           style="fill:#d0d0d0;stroke-width:1"
           d="m 33.626776,104.74942 c -0.03635,-0.0947 -0.04938,-0.97378 -0.02895,-1.95346 l 0.03714,-1.78124 2.91364,-0.0662 c 1.83686,-0.0417 2.903886,-0.11516 2.887247,-0.19865 -0.03057,-0.1534 -0.557357,-1.682502 -1.893473,-5.496187 -0.523153,-1.49324 -1.000275,-2.863975 -1.060271,-3.046078 -0.06,-0.182102 -0.47618,-1.374046 -0.924852,-2.648763 -0.448673,-1.274718 -1.074496,-3.062633 -1.390719,-3.973146 -0.316222,-0.910512 -1.158928,-3.294399 -1.872679,-5.297527 -1.199772,-3.367134 -1.298103,-3.717828 -1.302692,-4.645964 -0.0044,-0.893078 0.03488,-1.056116 0.355935,-1.476758 0.198495,-0.260065 0.635407,-0.62627 0.970914,-0.813789 l 0.610015,-0.340944 15.583857,-0.0109 c 18.538903,-0.01297 17.553369,-0.02314 18.164946,0.187568 0.697562,0.240329 1.42032,0.830276 1.788402,1.459774 0.174351,0.298177 0.621278,1.406298 0.993173,2.462492 0.371894,1.056195 0.762109,2.128944 0.867144,2.383887 0.105037,0.254944 0.390259,1.029707 0.633829,1.721697 0.660252,1.875797 3.566397,9.821983 4.092876,11.191025 0.252105,0.655569 0.742504,2.011405 1.089774,3.012969 l 0.6314,1.821025 h 3.900931 c 3.652503,0 3.896646,-0.01476 3.833669,-0.231767 -0.408725,-1.408377 -0.742663,-3.880264 -0.744149,-5.508358 l -0.0011,-1.171009 0.69019,0.04528 0.690188,0.04528 0.01691,-3.046078 c 0.01754,-3.160209 0.122868,-4.207597 0.659234,-6.55569 0.366164,-1.602984 0.676936,-2.54814 1.175749,-3.575831 0.194453,-0.400625 0.653935,-1.622367 1.021071,-2.714982 0.367136,-1.092615 0.84385,-2.344156 1.059365,-2.781202 0.286458,-0.580912 0.460093,-1.247284 0.645595,-2.477665 0.139562,-0.925669 0.348861,-1.86696 0.465107,-2.091758 0.250256,-0.483942 0.920375,-0.925572 1.405493,-0.926266 1.116491,-0.0016 2.080996,2.584641 1.705694,4.573669 -0.08697,0.460901 -0.12432,0.892689 -0.08301,0.959532 0.04131,0.06684 0.529862,0.159971 1.085671,0.206954 1.093473,0.09243 2.904856,0.661843 3.829827,1.203912 0.35037,0.205331 0.714692,0.577565 0.945357,0.965889 0.354035,0.596017 0.373262,0.706841 0.339398,1.956193 -0.06114,2.255554 -0.422022,4.756189 -0.85785,5.944204 -0.183847,0.501145 -0.700118,1.105946 -1.135525,1.330243 -0.191635,0.09872 -0.825206,0.255239 -1.407934,0.347821 -0.93958,0.149278 -1.11572,0.224098 -1.556149,0.661019 l -0.496643,0.49269 0.0027,1.240633 c 0.0026,1.211516 0.176072,2.854117 0.316218,2.994263 0.03859,0.03859 0.218923,-0.0273 0.400736,-0.14643 0.490334,-0.321279 0.816302,-0.272023 0.976838,0.147608 0.07663,0.200312 0.35857,0.930378 0.626526,1.622367 0.267957,0.69199 0.622812,1.645545 0.788566,2.119011 0.490305,1.400522 0.781548,2.119011 0.858952,2.119011 0.03996,0 0.603511,-0.998253 1.25233,-2.21834 4.396093,-8.266752 8.861963,-14.379819 12.060353,-16.508708 0.29136,-0.193936 0.73969,-0.693368 0.99628,-1.109849 0.5361,-0.870164 1.28259,-1.379935 2.97517,-2.03171 0.71175,-0.274081 1.25988,-0.594167 1.66455,-0.972034 0.55073,-0.514262 1.07236,-0.775678 1.77977,-0.891937 0.20942,-0.03442 0.0723,-0.19775 -0.6622,-0.788876 -3.30666,-2.661151 -5.0658,-6.305323 -5.64568,-11.695403 -0.0787,-0.731151 -0.16502,-1.352795 -0.19191,-1.381431 -0.0269,-0.02864 -0.0879,0.06076 -0.13561,0.198657 -0.35492,1.026185 -0.82372,1.841022 -1.3251,2.303181 -0.62683,0.57779 -0.85011,0.639365 -1.16751,0.321969 -0.1636,-0.163588 -0.20812,-0.515177 -0.20812,-1.643383 0,-1.262182 -0.058,-1.63238 -0.48122,-3.069728 -0.93405,-3.172465 -0.99605,-3.461987 -1.01651,-4.746755 -0.0241,-1.515065 0.16836,-2.364361 0.86091,-3.798432 0.71723,-1.485164 2.92457,-4.01542 3.50297,-4.01542 0.20152,0 0.51252,-1.047472 0.35511,-1.196076 -0.0599,-0.05658 -1.83729,-0.866948 -3.94967,-1.800812 -2.11239,-0.933864 -3.9748,-1.830833 -4.1387,-1.993266 -0.35084,-0.347722 -0.40447,-1.155916 -0.10505,-1.583387 0.16841,-0.240442 3.34617,-1.744801 14.44149,-6.836625 0.94693,-0.434564 2.52625,-1.163969 3.50961,-1.6209 2.97374,-1.381802 3.44723,-1.558066 3.98983,-1.485289 0.31962,0.04287 1.68548,0.784408 3.93336,2.135453 1.89403,1.138376 3.8732,2.24689 4.39816,2.463364 1.21521,0.501113 1.72214,0.808436 2.72585,1.652526 0.44556,0.3747 1.7269,1.229008 2.84743,1.898463 7.04707,4.210263 8.92819,5.401193 9.21928,5.836699 0.55426,0.82923 0.29318,2.049182 -0.55787,2.606811 -0.26168,0.171464 -6.10036,1.625613 -6.59099,1.641516 -0.23775,0.0077 -0.0596,0.277328 0.44997,0.680893 0.4204,0.332962 0.73203,0.4566 1.32793,0.526863 1.42673,0.168225 3.01613,1.384358 3.70493,2.834828 0.43915,0.924753 0.46192,1.145607 0.14579,1.413543 -0.41255,0.349656 -1.23331,0.771686 -1.50077,0.771686 -0.15329,0 -0.31041,0.131035 -0.38158,0.318231 -0.27213,0.715754 -0.80423,0.584194 -1.13445,-0.280491 -0.14718,-0.385387 -0.60719,-1.014386 -1.22498,-1.674989 -0.99947,-1.068738 -1.35373,-1.65953 -1.35373,-2.257606 0,-0.358796 -0.2368,-0.597036 -0.31653,-0.318451 -0.37012,1.293312 -0.82898,2.533552 -1.33833,3.617335 l -0.62241,1.324381 0.0868,1.125725 c 0.16827,2.182148 0.82351,4.510491 1.75172,6.224594 0.59203,1.093275 2.13497,3.178516 2.35189,3.178516 0.0907,0 0.27269,-0.119194 0.40453,-0.264876 0.36483,-0.403136 0.5809,-0.321996 0.85685,0.32178 0.13831,0.32266 0.35968,0.643839 0.49194,0.713728 0.27445,0.145027 1.2906,0.01726 1.72169,-0.216471 0.44994,-0.243959 0.70376,-0.193219 0.70603,0.14114 0.004,0.538693 0.19806,0.638956 1.7317,0.893179 1.72669,0.286222 3.06283,0.528172 5.03271,0.911331 0.75818,0.147474 2.06388,0.395716 2.90155,0.551648 2.89318,0.538567 4.66686,0.909057 4.75028,0.992254 0.184,0.183506 0.16678,3.984484 -0.0234,5.160741 -0.11471,0.70965 -0.1465,1.280211 -0.0785,1.410087 0.0628,0.11998 0.57979,0.606517 1.1489,1.081194 1.84431,1.538284 2.77751,2.735117 3.49169,4.478128 0.69687,1.700717 0.65135,2.788286 -0.23268,5.558561 -0.52772,1.653732 -1.24027,2.829539 -2.09163,3.451509 -0.44075,0.321985 -0.90309,0.912759 -1.69401,2.164551 -1.45953,2.310046 -3.11981,4.64543 -4.32316,6.081061 l -0.98979,1.18085 0.1568,1.070599 c 0.0862,0.58883 0.22985,1.517579 0.31915,2.063886 l 0.16235,0.99329 5.36374,0.0662 5.36375,0.0662 0.0383,1.65548 c 0.0211,0.91051 0.005,1.78957 -0.0356,1.95346 l -0.0739,0.29799 h -67.80998 c -55.528846,0 -67.821941,-0.0312 -67.876062,-0.17223 z M 53.527685,89.154953 c 0.988969,-0.591285 1.34997,-0.929642 1.823451,-1.709078 1.989276,-3.274701 -0.766576,-7.420141 -4.500567,-6.769894 -1.534223,0.267173 -2.615022,1.005148 -3.242053,2.213691 -0.773491,1.490832 -0.785327,2.914898 -0.03656,4.399085 0.406437,0.80563 1.106713,1.460314 2.081899,1.946351 0.613285,0.305665 0.779593,0.328455 2.019697,0.276763 1.103709,-0.04601 1.44352,-0.11142 1.854133,-0.356918 z M 132.89737,71.528185 c -67.987329,-30.493606 -33.993665,-15.246803 0,0 z M 145.479,70.643302 c 0,-0.06011 -0.17508,-0.700783 -0.38907,-1.42371 -0.21398,-0.722926 -0.42959,-1.539969 -0.47913,-1.815649 -0.0495,-0.275681 -0.1984,-0.633264 -0.3308,-0.794629 -0.21297,-0.259551 -0.26245,-0.270478 -0.42903,-0.09474 -0.17236,0.181847 -2.21268,3.796082 -2.21268,3.919561 0,0.02947 0.0841,0.05358 0.18684,0.05358 0.10277,0 0.31434,-0.263365 0.47016,-0.585254 0.39571,-0.817422 0.52353,-0.890566 1.47681,-0.845075 l 0.83255,0.03973 0.24326,0.827738 c 0.15508,0.527733 0.31353,0.827739 0.43717,0.827739 0.10665,0 0.19392,-0.04918 0.19392,-0.109299 z m -2.0859,-1.964985 c -0.0911,-0.03674 -0.16555,-0.183402 -0.16555,-0.325916 0,-0.384281 0.50717,-1.308069 0.71814,-1.308069 0.21076,0 0.4738,0.664832 0.4738,1.197536 0,0.457948 -0.47381,0.659423 -1.02639,0.436449 z m 3.06347,-1.205083 c -0.1731,-0.173102 -0.22545,-0.177096 -0.31983,-0.0244 -0.1643,0.265853 0.11744,0.571133 0.34942,0.378606 0.14706,-0.122048 0.142,-0.182616 -0.0296,-0.354207 z"
           id="path879"
           sodipodi:nodetypes="csccsssssscsscsssssssscssccccssssssssssssssssssccssssssssssssccscsssccsscscssssssscsssssssssssssscssssssscssssssssssssccsccccccsccssssssssccsscsssssscssssssssssssss" />
        <path
           id="path877"
           style="fill:#f7b08e;stroke-width:1"
           d="m 33.803875,104.55744 c -0.977383,-3.21002 0.834561,-3.75602 3.489267,-3.37356 12.570872,-0.20631 25.146781,0.0203 37.716153,-0.22478 -2.125819,-7.089846 -5.078457,-14.20134 -7.532977,-21.293 -0.453483,-2.990362 -5.741412,-9.056383 0.368279,-5.376713 3.309637,7.075602 5.466576,14.716882 8.315517,22.016183 0.638349,2.375464 4.268727,0.548874 6.139852,1.173918 5.520168,1.77668 -1.410099,-7.754217 3.027273,-6.882863 -0.02706,-5.131543 0.102473,-10.393062 2.53527,-15.060605 1.852631,-2.121131 1.217721,-10.695988 4.779583,-8.160361 0.291161,3.570644 0.486474,5.624932 4.760448,5.667358 4.15527,3.369898 1.267607,10.945679 -3.525767,11.941816 -0.951436,4.579853 2.981407,4.701618 3.617189,9.373331 2.057002,0.323812 4.082928,-6.965416 6.475518,-9.463107 2.69713,-4.365999 6.37466,-8.151543 10.33597,-11.247595 2.13381,-1.173881 7.0771,-2.276678 2.65605,-4.300678 -3.7311,-2.588882 -4.08644,-10.46921 -4.96918,-12.131699 -0.748,3.777623 -3.47353,3.243813 -2.73181,-0.624794 -2.91155,-5.37056 -0.52969,-11.111782 3.50552,-14.794663 -2.63498,-1.700926 -13.024082,-4.20951 -5.41824,-6.817748 6.29834,-2.791812 12.43883,-6.158889 18.91315,-8.424471 4.68407,2.58475 9.48432,4.991766 13.84625,8.09518 2.30687,2.228408 13.28889,5.4848 7.3417,8.692294 -2.87046,0.185317 -8.17191,1.881469 -2.48907,2.88341 4.13028,0.681835 2.38747,6.492165 -0.0747,4.489375 -1.86823,-1.916727 -3.11242,-6.766525 -3.94772,-1.407703 -2.15587,3.323065 -0.33934,7.56796 1.40608,10.677419 1.52632,2.495715 2.75497,2.962355 5.07264,2.947915 1.52638,-0.06316 0.86519,2.719419 3.2275,2.354948 -2.38917,2.335672 2.3304,3.635291 -0.92619,5.279788 -0.32948,3.093015 -2.14498,3.35716 -0.27817,6.702168 -2.20246,-0.286133 -4.18966,2.423511 -5.02021,-0.984621 -2.74297,-1.570446 -3.52271,4.208245 -5.46218,0.755737 -5.14119,1.555632 3.7012,-5.412898 -2.0859,-5.201501 1.12838,-2.080247 -0.65663,-2.944466 1.13251,-4.609747 -2.57912,-3.258826 3.25678,-1.853638 2.77351,-5.008391 -2.9114,-0.692841 -8.78072,-3.146412 -6.26397,2.072611 -0.11363,3.296723 1.16483,9.41969 -2.82888,7.562992 -3.0746,2.074742 -6.8756,3.871327 -9.23323,5.909121 -4.51326,-2.888097 -4.80311,7.476082 0.81742,5.133525 3.52402,1.449196 8.2403,-5.983089 2.59603,-2.667819 -6.45489,0.312754 5.67096,-0.943669 5.65545,-4.397321 4.57119,-6.150305 0.53654,4.176292 0.0821,6.573235 -1.49244,6.064762 -2.96181,12.331286 -2.08127,18.608746 13.22175,0.0655 26.44353,0.12392 39.66523,0.1986 0.0339,1.91123 0.56525,4.31983 -2.18848,3.44339 -44.39777,-0.0249 -88.796167,0.0701 -133.193455,-0.0993 z m 58.501196,-6.522575 c -0.516931,-0.483815 -0.516931,0.483815 0,0 z m 1.854134,-0.318664 c -3.428504,-0.229045 -4.036382,0.25434 0,0 z m 25.307965,-21.14988 c 4.26599,-0.349742 1.49841,-8.223097 -0.0431,-1.960397 0.13609,0.230909 -1.14344,3.110211 0.0431,1.960397 z m 26.12734,-3.44496 c 6.48826,-2.105268 1.21334,-11.965541 -4.14008,-7.892563 -4.0681,2.910339 -0.60756,9.596153 4.14008,7.892563 z m -2.69806,-0.358398 c -6.5179,-2.064762 -0.10926,-11.93155 4.365,-6.662099 2.87115,2.909103 -0.59687,8.060123 -4.365,6.662099 z m 2.64695,-2.007427 c -0.10329,-3.458765 -2.02372,-6.198222 -3.39401,-1.557288 -1.77621,3.966643 1.94016,-2.892747 3.39401,1.557288 z m -2.03579,-2.239411 c -0.38058,-2.394331 1.85396,0.0874 0,0 z m 2.89845,-0.206121 c 1.59463,-2.042858 -2.35453,-0.834838 0,0 z M 120.7223,65.610358 c 4.62934,-3.335791 -1.39219,-3.385786 -3.83188,-1.554488 -0.47253,1.826413 2.70201,2.067261 3.83188,1.554488 z m 22.9062,-2.770161 c 0.64019,-0.989249 -3.31552,0.03488 0,0 z m -31.27038,-8.112615 c -0.0757,-2.862661 -0.3859,3.941454 0,0 z M 158.01116,96.0754 c -1.04856,-3.608384 1.23514,-8.028409 -1.94613,-10.696901 -0.64124,-5.062305 3.89634,-9.77389 0.57722,-14.218838 4.22205,-2.266944 8.78479,4.306289 10.70436,7.713813 1.61145,6.094581 -4.58476,9.86076 -6.99564,14.715779 -0.70053,0.600486 -1.40876,2.495641 -2.33981,2.486147 z m -19.66734,-1.585574 c 3.86784,-1.306884 9.65417,-0.806647 14.24447,-1.162791 -2.4032,1.43466 -9.33517,0.693045 -13.28714,1.35329 l -0.7028,0.0201 -0.25459,-0.210595 z m 4.81751,-5.465235 c -1.89684,-0.34572 -9.42611,0.405257 -8.11568,-0.850642 6.00661,0.06886 12.02288,0.137592 18.01436,0.569325 -2.04394,1.205185 -7.04223,-0.0092 -9.89868,0.281317 z m 7.15166,-4.307738 c -5.15205,-0.615454 -10.3309,-1.028557 -15.4665,-1.764858 3.53393,-1.147405 9.03785,0.762435 13.33702,0.812028 2.63864,-0.137491 8.70589,1.686081 2.12948,0.95283 z" />
        <path
           id="path875"
           style="fill:#ee9a71;stroke-width:1"
           d="m 33.803875,104.55744 c -0.977378,-3.21002 0.834553,-3.75602 3.489258,-3.37356 12.570875,-0.20631 25.146787,0.0203 37.716162,-0.22478 -2.125819,-7.089846 -5.078457,-14.20134 -7.532977,-21.293 -0.453483,-2.990362 -5.741412,-9.056383 0.368279,-5.376713 3.309637,7.075602 5.466576,14.716881 8.315517,22.016182 0.638348,2.375466 4.268728,0.548874 6.139852,1.173919 4.700501,1.111096 0.280825,-5.251263 1.869582,-7.00267 3.141,0.672816 2.193762,-5.300969 6.328949,-5.064903 0.373776,-3.952959 6.397719,-5.830169 7.698162,-3.212122 -3.166599,1.185348 -6.134579,2.929212 -4.179344,7.062622 3.15709,-1.444218 2.772295,9.772598 5.169112,3.772906 3.491093,-6.383502 7.209853,-12.937419 12.990983,-17.527738 1.94429,-2.503984 11.16862,-7.091579 7.10239,-0.587139 -1.88568,3.487253 3.87919,-0.722088 0.63171,2.924421 -4.72687,5.171447 6.69694,7.266047 8.35361,2.71207 4.09672,-3.264402 -8.37481,1.47606 -3.31885,-0.654883 4.04231,0.204181 6.93404,-5.269886 8.83116,-5.986594 -2.20331,8.842655 -5.44909,17.847554 -4.25728,27.099262 13.22175,0.0655 26.44353,0.12392 39.66523,0.1986 0.0339,1.91123 0.56525,4.31983 -2.18848,3.44339 -44.39761,-0.0248 -88.796073,0.07 -133.193025,-0.0993 z m 58.501196,-6.522575 c -0.516931,-0.483815 -0.516931,0.483815 0,0 z m 1.854134,-0.318664 c -3.428504,-0.229045 -4.036382,0.25434 0,0 z m -7.386187,-7.177889 c -0.487586,-0.150189 -0.24328,0.230639 0,0 z m 2.750851,-0.05242 c 0.117867,-0.454431 -2.387549,0.385936 0,0 z m 1.026396,-0.220149 c -0.729313,-0.214956 -0.132362,0.231796 0,0 z m 2.182471,-0.522057 c -0.487565,-0.150196 -0.243309,0.230642 0,0 z m 65.378684,6.147689 c 0.77225,-3.091828 -2.72817,-12.030015 2.58731,-8.716438 7.37401,-1.581886 -0.38483,4.980719 -1.70258,7.890492 -0.21915,0.142521 -0.48528,1.172371 -0.88473,0.825946 z m -19.72973,-1.349274 c 3.85381,-1.516046 9.9134,-0.842592 14.5204,-1.132027 -4.13917,1.283942 -9.67072,0.709244 -14.30844,1.291683 l -0.21191,-0.159656 z m 4.91208,-5.516461 c -1.83811,-0.357882 -9.94795,0.431121 -8.04169,-0.889514 5.94504,0.231045 12.0029,-0.03524 17.8707,0.721033 -2.71678,0.952335 -6.72323,-0.06431 -9.82901,0.168481 z m 21.5212,-2.35737 c 1.25564,-1.627548 3.32834,-7.403219 1.65052,-1.982645 -0.26962,0.608041 -0.8675,2.159845 -1.65052,1.982645 z m -13.1776,-1.816252 c -5.5186,-0.852369 -11.79356,-0.772536 -16.81027,-2.211245 4.75944,-0.295885 10.03578,1.008156 14.98941,1.320017 1.56147,-0.33128 5.81319,1.421013 1.82086,0.891228 z m 4.33497,-1.120473 c 0.10657,-0.828853 0.10657,0.828853 0,0 z m 0.49903,0.09029 c 0.63119,-1.843546 4.95845,0.543746 0.86638,-0.116671 l -0.5684,0.07927 z m 10.60776,-2.282139 c 0.3675,-3.512389 0.59601,0.382868 0,0 z m -9.48749,-0.863037 c 0.366,-0.662495 1.15911,0.692964 0,0 z m -0.8554,-0.369856 c 0.24916,-1.603705 0.5184,0.337481 0,0 z M 97.966803,79.773334 c -1.644418,-1.848595 2.482697,0.924653 0,0 z m 62.742587,-0.620306 c -6.62361,-1.957586 4.33674,0.838913 0,0 z m -3.3708,-0.619814 c 0.63405,-2.881662 0.40637,1.496668 0,0 z m -11.94205,-0.860719 c 0.0144,-2.807705 -1.16031,-2.17056 -2.41641,-1.589791 0.45588,-2.577349 -1.88351,3.523133 -3.64624,0.674271 -4.54888,1.044305 3.82012,-5.500918 -1.93364,-5.23337 1.32726,-2.380994 0.53192,-1.837272 -0.40004,-2.030879 -0.1423,-0.120288 2.37905,-3.08578 1.17599,-4.644461 3.43585,0.205808 3.60734,-3.222557 -0.22531,-3.469685 -3.18567,-1.012863 -5.16989,-0.85397 -3.58207,3.003733 -0.27157,3.045237 1.23581,9.570003 -2.29937,6.876871 -3.18515,1.557808 -7.14088,5.178516 -10.16454,6.00238 -1.19471,-3.469469 0.0853,-6.432784 3.81247,-7.470427 3.36685,-2.786719 3.62074,-7.64817 3.60411,-11.299903 -3.28094,-3.402747 -2.91841,-10.614288 -9.49346,-7.853901 -4.87897,-0.04714 -8.77574,2.880925 -8.34965,7.864737 -3.05449,4.787322 -1.95988,-5.174194 -3.39627,-6.91573 -2.16588,-4.429619 6.07132,-7.894188 3.52801,-10.40906 -2.78705,-1.237513 -11.44198,-4.036921 -4.26238,-6.199399 6.29834,-2.791812 12.43883,-6.158889 18.91315,-8.424471 7.69132,3.99349 14.86865,8.809262 22.29982,13.274135 5.25871,4.844472 -12.20199,3.833058 -3.90336,6.424152 3.02008,0.525675 3.82712,4.797244 1.14829,4.342616 -1.26516,2.39881 -3.89507,-8.267295 -4.56628,-2.040862 -4.2858,4.266941 2.49598,12.051923 1.78992,13.791974 -3.16301,-0.46572 1.67632,2.17959 2.03869,-0.388363 0.30492,3.315622 4.30505,-0.886844 3.12636,3.034478 3.81587,-0.767666 -0.0944,3.158081 2.82697,4.184787 -2.45305,1.281771 -1.97205,4.011155 -2.82601,5.135422 1.36684,2.583912 1.15289,2.798975 -1.18837,3.063972 -1.35025,1.145824 -2.19538,-3.027015 -1.21599,0.364242 l -0.19698,0.283139 -0.19706,-0.350609 z m 0.38139,-4.426618 c 7.38892,-2.735826 -0.49189,-13.474468 -5.29391,-7.303429 -3.07259,3.579186 1.00565,9.001953 5.29391,7.303429 z m -2.37242,-0.512189 c -7.35723,-1.626127 0.0904,-12.588874 4.23707,-5.882035 1.65721,2.793235 -1.05318,6.622853 -4.23707,5.882035 z m 2.28463,-1.899638 c -0.0425,-2.475531 -1.92004,-7.105118 -3.2864,-2.346804 -2.83354,5.06049 2.14942,-1.850251 2.55964,2.348607 l 0.40261,0.17568 0.32415,-0.17748 z m -2.15022,-2.532578 c 0.23965,-2.114153 1.19244,0.821592 0,0 z m 2.97562,0.08284 c 1.50883,-3.067809 -2.89083,-0.158335 6e-5,0 z m -48.012547,9.294657 c -6.443746,-1.166347 1.576857,-1.343846 0,0 z m 49.153437,-0.366467 c -0.6177,-0.723333 1.19252,0.627136 0,0 z m 15.22268,-0.253009 c -2.37423,0.575137 -8.5849,-6.937564 -3.82163,-3.36206 0.37983,0.226208 5.88819,4.119272 3.82163,3.36206 z m -23.35983,0.05014 c 0.49273,-0.497327 0.72384,0.484844 0,0 z m 18.76238,-1.602785 c -0.32418,-2.178073 0.81881,1.033969 0,0 z M 98.198569,75.387549 c -1.447097,-0.846515 2.444921,0.546626 0,0 z M 90.00311,69.825565 c 0.06541,-5.790408 4.57825,-1.400495 2.779698,2.14547 0.03888,0.566333 -5.957046,6.318594 -3.915452,1.231807 0.348095,-1.135786 0.746953,-2.255054 1.135754,-3.377277 z m 66.73313,1.729512 c 0.25132,-0.666879 0.41137,0.480298 0,0 z m -18.58909,-4.205292 c -0.28812,-0.671492 0.77834,0.06317 0,0 z m -0.74688,-1.232489 c -0.5043,-1.958804 1.32129,1.828082 0,0 z m -20.33792,-4.619092 c -3.65998,-0.675542 1.93536,-6.181952 -0.39214,-1.550431 0.65025,0.09392 2.42836,2.438296 0.39214,1.550431 z m -2.31046,-3.22787 c -3.19875,-4.816042 5.06942,0.6049 0,0 z m 6.5585,0.167051 c -3.53267,-4.835847 4.96127,-1.051445 0,0 z m -8.31936,-3.094826 c 0.77391,-3.320086 6.71714,0.07756 1.42282,-0.361046 -0.47521,-0.183807 -1.02617,0.941331 -1.42282,0.361046 z m 6.15926,-0.111681 c -0.0465,-4.012779 9.18385,0.828331 2.81623,-0.656649 -0.99579,-0.216451 -1.90976,1.097117 -2.81623,0.656649 z"
           sodipodi:nodetypes="cccccccccccccccccccccccccccccccccccccccccccccccccccccccccccccccccccccccccccccccccccccccccccccccccccccccccccccccsccccsccccccccccccccccccccccccccccccccccccccccc" />
        <path
           id="path873"
           style="fill:#9f9e9e;stroke-width:1"
           d="m 33.803875,104.55744 c -0.977374,-3.21001 0.834545,-3.75602 3.48925,-3.37356 12.570877,-0.20631 25.146792,0.0203 37.71617,-0.22478 -2.125819,-7.089846 -5.078457,-14.20134 -7.532977,-21.293 -0.453483,-2.990362 -5.741413,-9.056383 0.368279,-5.376713 3.309637,7.075601 5.466576,14.71688 8.315516,22.016181 0.638347,2.375468 4.268729,0.548873 6.139853,1.17392 4.502368,0.266527 0.924275,-4.09345 1.595625,-6.964759 3.843198,1.523286 9.552934,-2.344753 11.991828,-0.400906 1.018767,2.170331 -5.590703,3.739581 -0.356352,1.805375 1.755964,-0.113359 -6.560159,3.188724 -1.349975,1.281658 3.311679,-3.825334 3.280913,5.143927 5.005374,-0.16554 3.491094,-6.3835 7.209854,-12.937416 12.990984,-17.527738 1.70539,-1.859322 6.6348,-4.846524 8.05669,-3.107149 -0.93605,2.089796 -2.93701,6.847721 0.54264,3.56423 -2.05681,2.160169 -3.36627,7.681607 1.97689,6.969945 2.90277,0.850749 6.76071,-2.212914 6.45807,-4.119487 -1.73944,1.942458 -9.20964,1.77487 -3.04627,0.776018 3.63738,-0.002 5.86564,-5.015393 7.53552,-5.717517 -2.37005,8.814496 -5.24585,17.9128 -4.18095,27.141092 13.22175,0.0655 26.44353,0.12392 39.66523,0.1986 0.0339,1.91123 0.56525,4.31983 -2.18847,3.44339 -44.39755,-0.0248 -88.796405,0.07 -133.192925,-0.0993 z m 54.823278,-9.913545 c -0.487586,-0.150189 -0.24328,0.230639 0,0 z m -3.178516,-0.264876 c -0.487585,-0.150191 -0.243285,0.230639 0,0 z m 1.956221,-0.05242 c -1.734328,-0.158153 0.157555,0.408776 0,0 z m 1.028917,-0.08687 c -0.882613,-0.241573 -0.15926,0.240708 0,0 z m 2.679352,-0.04557 c -1.12461,0.08172 -0.454795,0.02665 0,0 z m -0.421708,-0.346424 c 5.447836,-1.664832 -5.141675,1.082939 0,3e-6 z M 118.68176,78.268467 c -0.2318,0.132362 0.21496,0.729315 0,0 z m 19.69993,16.273631 c 3.85381,-1.516046 9.9134,-0.842592 14.5204,-1.132027 -4.13917,1.283942 -9.67072,0.709244 -14.30844,1.291683 l -0.21191,-0.159656 z m 4.91208,-5.516461 c -1.83811,-0.357882 -9.94795,0.431121 -8.04169,-0.889514 5.94504,0.231045 12.0029,-0.03524 17.8707,0.721033 -2.71678,0.952335 -6.72323,-0.06432 -9.82901,0.168481 z m 8.3436,-4.173622 c -5.5186,-0.852369 -11.79356,-0.772536 -16.81027,-2.211245 4.75944,-0.295885 10.03578,1.008156 14.98941,1.320017 1.56147,-0.33128 5.81319,1.421013 1.82086,0.891228 z m -10.85688,-7.411286 c -1.00245,-1.729111 -3.93686,-0.238203 -1.6901,-2.848176 1.6767,-4.278047 8.47625,1.989999 9.72324,-4.263555 2.11758,-4.235173 -3.98218,-5.784833 -4.68013,-7.298869 1.25635,-2.194323 1.78365,2.936703 3.88458,-0.09138 -1.55117,3.504387 3.80781,1.171414 1.28428,4.444821 3.50301,1.931915 -2.0505,2.551173 -0.25679,5.79498 -3.75382,-1.31991 2.45015,5.536892 -1.725,3.425827 -1.48811,3.165323 -1.68664,-3.859909 -3.47339,-0.931906 -1.01355,-3.633634 -2.12313,2.933516 -3.06669,1.768258 z m 6.56639,-13.084389 c -0.67235,-0.287328 0.13549,0.70923 0,0 z m -7.8276,12.753293 c 0.49273,-0.497327 0.72384,0.484844 0,0 z m 3.77449,-4.555778 c -7.8582,-2.302537 1.97877,-12.778736 4.6257,-4.599638 0.62382,2.617074 -1.95868,5.44938 -4.6257,4.599638 z m 2.37442,-1.479621 c 0.19922,-1.899904 -1.39395,-3.822014 0.92346,-2.547804 1.71698,-2.819714 -1.97055,-0.534635 -2.84245,-2.48914 -1.57855,1.627778 -3.73499,7.209711 -0.16256,3.261702 1.23636,-0.265583 0.9554,2.554711 2.08155,1.775242 z m -1.96972,-2.826009 c -0.0484,-1.554475 0.94147,0.574394 0,0 z m -9.97998,4.067144 c -2.71798,-2.569179 -2.23569,-10.074884 0.0545,-10.868615 0.6956,3.349798 1.04403,8.292748 -0.0545,10.868615 z m 6.09669,-0.24227 c -3.79108,-0.04037 0.6008,-2.274766 -2.28247,-3.367963 3.2286,-1.048047 -1.54705,-5.176282 3.11959,-3.554481 -0.43545,-2.842024 2.3991,-3.221221 2.36935,-1.034071 -4.18219,0.544468 -4.35143,6.297565 -2.60527,8.331476 z m 0.50294,-8.298779 c 0.37579,-1.601682 0.22033,1.099863 0,0 z m 3.22293,-1.369654 c -3.24331,-1.666964 -12.97644,0.0637 -7.85041,-5.400361 3.39988,-3.795813 -2.61202,-6.898104 -3.52389,-1.923013 -0.53436,3.206634 -0.17587,7.196793 -3.20621,2.717878 -3.55348,-2.611432 -1.48141,-11.134655 -7.35989,-7.597704 -4.32176,0.265034 -11.24466,1.539903 -9.74295,7.452618 -3.14092,6.364335 -2.18345,-4.015269 -3.82352,-6.145256 -0.85546,-4.235879 3.20164,-6.742543 4.7551,-9.854941 -2.79093,-1.382406 -5.97511,-2.267447 -8.42756,-4.121301 2.7527,-3.992671 9.77351,-4.935495 14.10755,-7.721223 4.41726,-2.712883 9.20108,-4.484772 13.33084,-0.198434 5.77991,3.717987 11.90734,6.91276 17.54003,10.874791 2.07084,4.652369 -12.61179,3.019936 -4.77942,5.879926 2.94463,0.501407 3.87828,4.750865 1.08245,4.084785 -0.98271,2.467955 -3.89689,-8.528799 -4.37544,-1.99877 -2.91595,4.598286 -0.51578,10.239287 2.75495,13.937885 -0.12985,0.323506 -0.29437,0.0166 -0.48163,0.01312 z m 2.18729,-14.573796 c -1.33793,-0.03155 0.76139,0.608133 0,0 z m -0.64666,-0.383971 c -1.23194,-1.582281 -1.19065,0.598373 0,0 z M 115.07115,58.46695 c -2.85165,-3.30089 3.14315,-1.811985 0,0 z m 6.31832,-0.178761 c -3.20902,-4.932223 4.5583,-0.287638 0,0 z m -8.22539,-3.105762 c 0.8514,-2.415229 5.92792,-0.09421 1.26116,-0.400245 -0.45572,-0.251083 -0.8479,0.706802 -1.26116,0.400245 z m 6.11606,-0.353508 c 1.85748,-2.561751 7.53918,0.671528 1.94013,-0.36136 -0.48149,-0.06777 -1.80804,1.264173 -1.94013,0.36136 z"
           sodipodi:nodetypes="ccccccccccccccccccccccccccccccccccsssccccccccccccccccccccccccccccccccccccccccccccccccccccccccccccccccccccccccccccccccc" />
        <path
           style="fill:#f29321;stroke-width:1"
           d="m 102.26001,100.99265 c -0.0486,-0.0486 -0.0883,-0.88249 -0.0883,-1.853175 v -1.764883 l -8.640899,-0.03407 -8.640902,-0.03407 -0.221856,-0.794629 c -0.286087,-1.02468 -0.301818,-1.64124 -0.0444,-1.740022 0.281291,-0.107942 0.248011,-0.256286 -0.137736,-0.613971 -0.314526,-0.291645 -0.341734,-0.418174 -0.418577,-1.946493 l -0.08219,-1.634571 0.517907,0.08823 c 1.16622,0.198685 4.278225,0.257506 5.110265,0.09659 2.007461,-0.388238 3.246498,-0.717474 3.580336,-0.951364 0.197363,-0.138273 0.495349,-0.252716 0.662191,-0.254316 0.166842,-0.0016 0.559187,-0.119022 0.871877,-0.260939 0.531247,-0.241109 0.573875,-0.243089 0.650032,-0.0302 0.04483,0.125307 0.191269,0.513123 0.325429,0.861814 0.134158,0.348691 0.243926,0.724033 0.243926,0.834091 0,0.326472 -0.656318,0.830367 -1.841438,1.413783 -0.612165,0.301359 -1.043843,0.570988 -0.959284,0.599173 0.08456,0.02819 0.734413,-0.236938 1.444123,-0.589167 0.709708,-0.352229 1.335077,-0.660281 1.389708,-0.684561 0.05463,-0.02428 0.09933,0.03844 0.09933,0.13939 0,0.196317 -2.830791,1.69364 -3.200794,1.693034 -0.307899,-5.3e-4 -0.639913,0.13929 -0.639913,0.269437 0,0.127974 0.399718,0.01804 1.610643,-0.442978 0.485228,-0.184732 0.908872,-0.309239 0.941431,-0.276679 0.08549,0.08549 1.242912,-0.428527 1.348078,-0.598688 0.165859,-0.268366 0.449013,-0.144532 0.531843,0.232596 0.128774,0.586298 1.078438,2.71898 1.233798,2.770766 0.07657,0.02552 0.481301,-0.597562 0.899408,-1.384631 1.507354,-2.837533 2.346904,-4.348774 2.538284,-4.569104 0.10723,-0.123436 0.38424,-0.600214 0.61558,-1.059505 0.57773,-1.146976 2.93472,-4.763001 4.26137,-6.537682 1.56942,-2.099434 3.18296,-3.865061 4.38167,-4.794674 1.35104,-1.04774 1.63197,-1.32762 2.04373,-2.036091 0.26801,-0.461145 0.53861,-0.690851 1.25816,-1.068006 0.50419,-0.264276 1.31671,-0.609252 1.80559,-0.766617 0.62806,-0.202161 1.00318,-0.416286 1.27839,-0.729741 0.21423,-0.243994 0.57578,-0.53995 0.80344,-0.657677 0.58315,-0.301558 1.99405,-0.411149 2.30093,-0.178725 0.22814,0.172784 0.22417,0.207913 -0.0872,0.77347 -0.69619,1.264394 -1.08911,2.952878 -1.41915,6.098427 -0.12913,1.230711 -0.12731,1.672533 0.009,2.241712 0.22688,0.945735 0.96494,1.753757 1.89741,2.077259 1.41392,0.490532 5.58802,0.150382 6.64383,-0.541411 0.28935,-0.189595 0.9015,-1.044195 1.54251,-2.153465 1.11565,-1.930643 4.41436,-6.309298 4.9056,-6.511616 0.12862,-0.05297 0.0201,0.622214 -0.23058,1.434354 -1.59233,5.159182 -3.2971,12.455818 -3.83688,16.422333 -0.14007,1.029257 -0.35721,1.981112 -0.57405,2.516326 -0.30046,0.741622 -0.34714,1.044273 -0.33705,2.185229 0.009,0.9987 0.0809,1.513213 0.29304,2.092256 0.15473,0.422331 0.32157,1.211994 0.37076,1.754801 l 0.0894,0.98693 h -13.50488 c -7.42769,0 -13.54462,-0.0397 -13.59318,-0.0883 z M 88.627153,94.643895 c -0.04401,-0.04401 -0.158237,-0.04871 -0.25384,-0.01045 -0.10565,0.04228 -0.07427,0.07366 0.08002,0.08001 0.139611,0.0057 0.217833,-0.02555 0.173825,-0.06956 z m -3.178516,-0.264876 c -0.04401,-0.04401 -0.158237,-0.04871 -0.253841,-0.01045 -0.105649,0.04228 -0.07427,0.07366 0.08002,0.08001 0.139611,0.0057 0.217833,-0.02555 0.173825,-0.06956 z m 1.956221,-0.05242 c 0.09413,-0.152301 -0.120411,-0.152301 -0.595971,0 -0.316195,0.101264 -0.312076,0.10663 0.09151,0.119237 0.232434,0.0073 0.459441,-0.0464 0.504459,-0.119237 z m 1.028917,-0.08687 c -0.08966,-0.03628 -0.268457,-0.03848 -0.397315,-0.0049 -0.128858,0.03358 -0.0555,0.06326 0.163027,0.06596 0.218523,0.0027 0.323952,-0.02477 0.234288,-0.06105 z m 2.679352,-0.04557 c 0.09772,-0.15811 -0.16181,-0.15811 -0.529752,0 -0.236512,0.101633 -0.226713,0.114818 0.09151,0.123129 0.196013,0.0051 0.393222,-0.05029 0.43824,-0.123129 z m -0.421708,-0.346424 c 0.741827,-0.190534 1.458175,-0.403952 1.591886,-0.474264 0.473232,-0.24885 0.117153,-0.23921 -0.720472,0.01951 -0.466823,0.144187 -1.325154,0.379123 -1.907401,0.522081 -0.582246,0.142957 -0.890815,0.264236 -0.685709,0.269511 0.205107,0.0053 0.97987,-0.146302 1.721696,-0.336835 z M 140.78049,77.440729 c -0.69273,-1.137083 -0.51036,-1.035223 -1.67201,-0.933891 -0.57531,0.05018 -1.04602,0.04211 -1.04602,-0.01794 0,-0.06006 0.46257,-0.91341 1.02793,-1.896345 0.88378,-1.536545 1.0695,-1.781345 1.32438,-1.745721 0.16305,0.02279 0.29645,-0.02191 0.29645,-0.09933 0,-0.195768 0.34245,-0.176182 0.55341,0.03165 0.26546,0.261535 1.30131,0.713464 1.8967,0.827509 1.94571,0.3727 4.37719,-0.681806 5.2067,-2.258086 0.7556,-1.43583 0.85853,-2.496234 0.39013,-4.019412 -0.31434,-1.02224 -0.85715,-1.737837 -1.82234,-2.40246 -0.25495,-0.175551 -0.50827,-0.391438 -0.56294,-0.479749 -0.0547,-0.08831 -0.33744,-0.200782 -0.62839,-0.249936 -0.29094,-0.04915 -0.56169,-0.142288 -0.60166,-0.206963 -0.04,-0.06468 -0.33827,-0.08119 -0.66288,-0.03669 -0.38336,0.05254 -0.59021,0.03091 -0.59021,-0.06173 0,-0.07844 0.054,-0.175998 0.12,-0.216791 0.066,-0.04079 0.0902,-0.188082 0.0538,-0.327311 -0.0438,-0.16748 0.0943,-0.425135 0.40814,-0.761387 0.54049,-0.579125 0.63161,-0.532136 0.91018,0.469419 0.18415,0.662087 0.62268,0.971916 1.00137,0.707489 0.36959,-0.258072 1.4926,-0.824304 1.63485,-0.824304 0.0865,0 0.10048,0.395825 0.0397,1.125725 l -0.0938,1.125724 h 1.07517 c 1.27557,0 1.33799,0.110899 0.64475,1.145526 -0.52613,0.785231 -0.50799,1.423049 0.05,1.757928 0.92077,0.552607 1.17497,0.740216 1.17403,0.86648 -0.001,0.187422 -0.98125,0.732964 -1.31649,0.732964 -0.22227,0 -0.27175,0.08439 -0.27175,0.463534 0,0.28695 -0.1009,0.564438 -0.26487,0.72841 -0.31969,0.319692 -0.35296,1.122074 -0.0742,1.789277 0.23539,0.563368 0.11329,0.652768 -0.52648,0.385457 -0.42082,-0.175833 -0.52404,-0.17972 -0.67821,-0.02554 -0.21155,0.211549 -0.022,0.850021 0.8104,2.729684 0.26899,0.607413 0.45787,1.135591 0.41974,1.17373 -0.0602,0.06023 -0.7524,-0.142676 -1.42282,-0.417093 -0.15666,-0.06412 -0.32845,0.09196 -0.64615,0.587056 -0.38716,0.603337 -0.44895,0.649442 -0.58631,0.437542 -0.15802,-0.243767 -0.58012,-1.181028 -0.9276,-2.059746 -0.20305,-0.513482 -0.61274,-0.806862 -0.71179,-0.509717 -0.0303,0.09084 -0.19092,0.323111 -0.35698,0.516166 -0.25411,0.29542 -0.33444,0.324026 -0.50724,0.180615 -0.11292,-0.09372 -0.24277,-0.34095 -0.28856,-0.549406 -0.12485,-0.568465 -0.37318,-0.716664 -0.66344,-0.395935 -0.2632,0.290836 -0.25023,0.269684 -1.16831,1.90503 -0.35189,0.626817 -0.6634,1.139668 -0.69224,1.139668 -0.0289,0 -0.14321,-0.148993 -0.25416,-0.331095 z m 6.56639,-13.084389 c -0.16998,-0.169983 -0.34236,-0.03861 -0.21652,0.165015 0.0488,0.07887 0.14931,0.105913 0.22346,0.06008 0.0905,-0.0559 0.0882,-0.129982 -0.007,-0.225097 z m -4.05311,8.197517 c -1.07203,-0.263543 -1.82283,-0.763238 -2.37967,-1.583783 -0.37631,-0.554523 -0.48511,-0.977627 -0.56079,-2.180784 -0.0544,-0.865349 -0.0214,-1.048392 0.30641,-1.696239 0.47035,-0.929622 1.14014,-1.529985 2.12008,-1.900319 1.5116,-0.571256 3.35548,-0.08311 4.40042,1.164952 1.55147,1.853063 0.76141,5.134041 -1.43015,5.93917 -0.33119,0.121672 -0.65879,0.27097 -0.72798,0.331771 -0.17376,0.152669 -0.93758,0.119626 -1.72832,-0.07477 z m -3.47859,-0.480756 c -0.34213,-0.311211 -0.55437,-0.393433 -1.01557,-0.393433 -1.15488,0 -1.26097,-0.223142 -0.47227,-0.993286 0.56573,-0.552422 0.67426,-0.948337 0.29798,-1.087022 -0.38445,-0.141699 -1.09261,-0.721275 -1.09261,-0.894222 0,-0.08904 0.29173,-0.32067 0.64829,-0.514734 0.35656,-0.194063 0.68434,-0.446799 0.72841,-0.561632 0.14699,-0.383055 0.0825,-0.947329 -0.12822,-1.122227 -0.26307,-0.21833 -0.71873,-1.102288 -0.71873,-1.394307 0,-0.19356 0.12723,-0.211929 1.0264,-0.148185 0.56451,0.04002 1.16048,0.114225 1.32438,0.1649 0.2402,0.07427 0.29798,0.04093 0.29798,-0.171969 0,-0.145259 0.0894,-0.338298 0.19866,-0.428977 0.13957,-0.115835 0.19926,-0.42593 0.20069,-1.042612 0.003,-1.314238 0.0806,-1.361041 1.10805,-0.668372 0.47745,0.321892 0.86999,0.656794 0.8723,0.744226 0.002,0.08743 0.10523,0.21551 0.22872,0.284617 0.18459,0.103304 0.13159,0.151454 -0.29799,0.27072 -0.28738,0.07979 -0.65843,0.1454 -0.82454,0.145805 -0.17875,3.97e-4 -0.46817,0.189951 -0.70902,0.464273 -0.22385,0.254943 -0.49021,0.463533 -0.59193,0.463533 -0.10172,0 -0.18494,0.08506 -0.18494,0.189016 0,0.103958 -0.19892,0.357246 -0.44206,0.562862 -0.3062,0.258954 -0.49553,0.577354 -0.61605,1.036038 -0.0957,0.364205 -0.26136,0.816206 -0.36816,1.004447 -0.27494,0.484632 -0.0384,2.272506 0.35618,2.69255 0.1515,0.161271 0.27546,0.38294 0.27546,0.492597 0,0.109659 0.1788,0.399638 0.39732,0.644399 0.21852,0.244762 0.39731,0.493885 0.39731,0.553606 0,0.238176 -0.48757,0.07896 -0.89604,-0.292611 z m -6.69707,-0.798658 c -1.00759,-1.574871 -1.21541,-2.372272 -1.20606,-4.627426 0.007,-1.735479 0.0437,-2.028729 0.37922,-3.046078 0.55115,-1.671191 1.11345,-2.85658 1.27733,-2.692705 0.23862,0.238622 0.6548,2.632552 0.77326,4.447976 0.16794,2.573453 -0.11669,6.697559 -0.47037,6.815453 -0.0813,0.0271 -0.42032,-0.376649 -0.75338,-0.89722 z M 142.3667,62.1241 c -1.55386,-0.28428 -2.67505,-0.52748 -3.04608,-0.660734 -0.21852,-0.07848 -0.99328,-0.220663 -1.72169,-0.315959 -1.71844,-0.224821 -3.68161,-0.590492 -3.8065,-0.709021 -0.054,-0.05127 0.26795,-0.656912 0.7155,-1.345865 1.03853,-1.598679 1.50406,-2.623805 1.8339,-4.038412 0.3612,-1.549105 0.34674,-1.688055 -0.23283,-2.237388 -0.43248,-0.409907 -0.5822,-0.470847 -1.15884,-0.471668 -0.85165,-0.0012 -1.47215,0.316978 -2.01424,1.032898 -0.57305,0.756812 -1.0848,2.46933 -1.17983,3.948167 -0.0415,0.645345 -0.12527,1.266546 -0.18622,1.380448 -0.0614,0.114694 -0.0568,0.292547 0.0103,0.398615 0.19315,0.305286 0.15387,1.184808 -0.0529,1.184808 -0.20531,0 -0.6165,-0.41697 -0.6165,-0.625152 0,-0.07742 -0.14015,-0.175936 -0.31144,-0.218927 -0.42679,-0.107119 -1.96083,-1.907858 -2.72205,-3.195285 -0.34455,-0.582728 -0.84314,-1.566082 -1.10797,-2.18523 -0.48725,-1.139135 -1.28851,-3.985993 -1.28851,-4.578068 0,-0.38879 -0.12369,-0.399554 -0.77474,-0.06742 -0.73431,0.37462 -1.85769,0.632916 -3.79437,0.872431 -4.42552,0.547318 -6.96966,1.372986 -8.20579,2.66308 -0.70662,0.737469 -0.91442,1.445829 -0.79115,2.696859 0.13207,1.340327 -0.36842,2.865615 -1.28155,3.905616 -0.72689,0.827879 -0.86007,0.685068 -0.95374,-1.022714 -0.0688,-1.254012 -0.1878,-1.850899 -0.75169,-3.769622 -0.36848,-1.253831 -0.72253,-2.698285 -0.78677,-3.209898 -0.23078,-1.837941 0.23538,-3.73423 1.33646,-5.436559 0.63462,-0.981176 1.94267,-2.375118 2.60982,-2.781201 0.38546,-0.234631 0.58276,-0.466148 0.67718,-0.79463 0.29169,-1.014781 0.50608,-0.86122 -3.97509,-2.847169 -2.4365,-1.079796 -4.16201,-1.918908 -4.23802,-2.060936 -0.17726,-0.331212 -0.16038,-0.825123 0.0373,-1.092084 0.091,-0.122944 2.63883,-1.362458 5.66173,-2.754474 16.4671,-7.582933 15.56336,-7.183897 16.04975,-7.086618 0.2157,0.04314 2.07971,1.093569 4.14223,2.334287 2.06253,1.240717 4.03972,2.353654 4.39377,2.473194 0.81774,0.276098 1.53105,0.723112 2.21983,1.391098 0.2986,0.289585 0.78129,0.64955 1.07266,0.799923 0.29136,0.150373 2.01968,1.1798 3.84071,2.287616 1.82102,1.107814 4.13053,2.501822 5.13223,3.097792 1.0017,0.595972 1.91329,1.224002 2.02574,1.395622 0.32419,0.494775 0.38081,1.171921 0.13737,1.642687 -0.37799,0.730946 -0.3384,0.716938 -5.14316,1.819845 -2.62298,0.602089 -2.74999,0.710661 -1.80475,1.542816 0.70476,0.620447 1.03124,0.76467 1.73097,0.76467 1.04319,0 2.76048,1.294414 3.28228,2.474032 0.49686,1.123225 0.49309,1.145537 -0.25251,1.494758 -0.60205,0.281982 -0.69159,0.293166 -0.90172,0.112637 -0.53709,-0.461409 -0.60896,-0.44531 -0.53321,0.119449 0.0645,0.480934 -0.0615,0.985545 -0.20672,0.82794 -0.0316,-0.03431 -0.22191,-0.390169 -0.42288,-0.790794 -0.20096,-0.400626 -0.8041,-1.195233 -1.34031,-1.765796 -0.90281,-0.960653 -0.97492,-1.079943 -0.97492,-1.612755 0,-0.465825 -0.0674,-0.628353 -0.35379,-0.853657 -0.19458,-0.153057 -0.39855,-0.231879 -0.45327,-0.17516 -0.0547,0.05672 -0.19865,0.490509 -0.31985,0.963975 -0.24799,0.968786 -0.98238,2.818299 -1.46593,3.69184 -0.23318,0.421252 -0.32059,0.782983 -0.32002,1.324382 0.002,2.011809 0.8408,5.285167 1.7885,6.980396 0.2477,0.443078 0.78781,1.275928 1.20025,1.850782 0.41243,0.574853 0.77905,1.121192 0.8147,1.214088 0.0746,0.194411 -0.22675,0.198467 -1.22169,0.01644 z m 3.36164,-14.293242 c -0.43349,-0.110955 -0.6052,0.01319 -0.31338,0.226572 0.19005,0.138966 0.28195,0.142177 0.43495,0.0152 0.16504,-0.136969 0.14689,-0.173055 -0.12157,-0.24177 z m -0.64666,-0.383971 c 0,-0.337247 -0.71146,-0.725298 -1.01664,-0.554507 -0.22532,0.126093 -0.13043,0.217903 0.68555,0.663335 0.34518,0.188431 0.33109,0.193061 0.33109,-0.108828 z M 126.47649,29.169445 c -0.2832,-0.290027 -0.53964,-0.50259 -0.56987,-0.472363 -0.0679,0.06789 0.85235,0.999684 0.98728,0.999684 0.0536,0 -0.1342,-0.237294 -0.41741,-0.527321 z m -11.53045,29.12738 c -0.13935,-0.153977 -0.24567,-0.469225 -0.24567,-0.72841 0,-0.436794 -0.0742,-0.514816 -0.44367,-0.466833 -0.2468,0.03205 -0.19996,-0.227642 0.0662,-0.367099 0.56861,-0.297911 1.06916,-0.308656 1.34886,-0.02896 0.33212,0.332116 0.36684,1.140822 0.0673,1.568417 -0.25647,0.36616 -0.47667,0.372513 -0.79308,0.02288 z m 6.46102,0.0044 c -0.12676,-0.146912 -0.26027,-0.519395 -0.29669,-0.827739 -0.0539,-0.456049 -0.1218,-0.568521 -0.3642,-0.602947 -0.40886,-0.05807 -0.37343,-0.24296 0.0927,-0.484031 0.58742,-0.303769 1.27385,-0.262151 1.52211,0.09229 0.32482,0.463748 0.26966,1.453966 -0.10036,1.80158 -0.38045,0.357414 -0.55944,0.361786 -0.85361,0.02085 z m -8.24298,-3.118773 c 0,-0.47385 0.90957,-1.046006 1.85725,-1.16829 0.70529,-0.09101 1.49824,0.15366 1.56113,0.481696 0.0396,0.206599 -0.0827,0.231767 -1.12607,0.231767 -0.91748,0 -1.27734,0.05726 -1.66471,0.264876 -0.52148,0.279499 -0.6276,0.311616 -0.6276,0.189951 z m 6.11606,-0.353508 c 0.0541,-0.378511 0.89826,-0.851643 1.83716,-1.029699 1.08219,-0.205234 2.81193,0.312935 3.00798,0.901084 0.0351,0.10522 -0.13294,0.08669 -0.5214,-0.05751 -0.31524,-0.117015 -0.99033,-0.220299 -1.50022,-0.229521 -0.77502,-0.01402 -1.04071,0.04297 -1.61993,0.347437 -0.87024,0.457443 -1.26242,0.479669 -1.20359,0.06821 z"
           id="path871"
           sodipodi:nodetypes="cscccsssscssssssssssssssssssssssssssssssscscsssscsscsccsccsscsssscsssscsssssssssssssssssssssssssssssssssssssssssccssscsssssssssssssssssssssccsccssscssssssssssssssssssscscsscsssssssssssscssssscsssssssscssssssssssssssssssssscssssssssssssssssssssssssscsssccssssssssssssscsssscccccssssccsssssssssssss" />
        <path
           id="path869"
           style="fill:#c35722;stroke-width:1"
           d="m 102.26001,100.99265 c -0.52252,-1.29874 0.90311,-4.298241 -1.47554,-3.623529 -5.297325,-0.02089 -10.594649,-0.04178 -15.891974,-0.06267 -0.848417,-1.721142 -0.445224,-2.988822 1.579579,-2.50368 3.450174,-0.03528 6.897954,-1.062871 9.963985,-2.445115 0.65519,1.755214 1.650741,4.52409 2.642801,1.227989 3.532169,-6.338169 7.040249,-13.063767 12.896189,-17.589732 1.94425,-2.287449 5.1955,-4.142349 8.11615,-4.291586 -0.79549,2.730581 -1.85904,6.031755 -1.49735,9.113609 1.34691,3.396763 6.92761,2.797776 9.18062,0.803994 1.53441,-2.229887 4.40373,-7.413749 5.78764,-7.36093 -1.83819,6.35659 -3.43072,12.789315 -4.45894,19.326486 -1.24497,2.444325 0.1185,4.992644 0.25467,7.493453 -9.03229,-0.0228 -18.0679,0.0637 -27.09783,-0.0883 z m 23.16293,-2.100273 c 3.15989,-1.101452 1.29399,-5.450734 2.59781,-7.944572 1.17165,-4.385833 3.28505,-8.583364 3.64056,-13.149108 -2.01604,1.210744 -3.2105,5.871959 -4.94427,8.324327 -1.75863,3.596224 -3.89958,7.133034 -4.79305,11.057263 -0.28693,2.003269 2.12597,2.31287 3.49895,1.71209 z m -11.10325,-3.76609 c 0.97624,-3.368389 1.30055,-6.969727 2.21898,-10.390344 0.85498,-4.115299 2.03573,-8.174364 2.69005,-12.3245 -2.58887,-0.09977 -4.3025,4.889181 -5.99397,7.027833 -2.66797,4.52414 -4.1426,10.599096 -1.22796,15.350717 0.51783,0.752753 1.70515,1.386185 2.3129,0.336294 z M 84.452729,94.11218 c -0.350258,-1.260637 -1.373643,-4.615824 1.223812,-3.32564 3.293666,1.027834 7.28925,-1.64993 9.830445,-1.174632 1.154619,3.517376 -5.019279,3.836184 -7.42793,4.544969 -1.148458,-0.02144 -2.547567,0.442904 -3.626327,-0.0447 z M 140.8759,77.606276 c -0.009,-2.37201 -4.06599,0.092 -2.19992,-2.296801 0.74502,-1.465503 1.84014,-3.352559 1.52099,-0.507921 4.09442,-2.075904 1.96285,1.733005 0.67893,2.804722 z m 5.30192,-0.397314 c -1.17369,-1.601943 -1.10701,-3.79724 1.03922,-1.90138 0.38281,-0.995285 0.34674,-2.707421 1.0259,-0.359228 0.85859,1.46606 0.99659,2.585987 -0.96241,1.520049 -0.31996,0.146711 -0.80437,2.311754 -1.10271,0.740559 z m -13.05971,-5.934519 c -1.96983,-3.059012 -1.54004,-7.470295 0.45049,-10.366209 1.01758,3.613744 1.13424,7.619812 0.30289,11.263429 -0.33917,-0.21598 -0.52726,-0.581184 -0.75338,-0.89722 z m 9.24859,-9.150347 c -2.54619,-0.964751 -6.9339,-0.595203 -8.4046,-2.119515 1.55945,-1.914425 4.79684,-8.415286 -0.13515,-7.412003 -2.81316,1.340602 -1.40438,6.516503 -2.68492,7.462899 -3.17453,-2.658321 -5.12769,-6.677334 -5.69073,-10.789416 -3.845,1.466243 -8.60259,0.82778 -12.21942,3.226974 -2.54569,1.742595 -0.16596,6.212935 -3.31301,7.50437 -0.18109,-3.114023 -1.44781,-6.046419 -1.83186,-9.13322 -1.00745,-4.133495 4.41163,-6.393369 4.47973,-9.380317 -2.27612,-1.935797 -7.47805,-1.934913 -7.97809,-4.940792 7.0061,-3.478483 14.14345,-6.720766 21.31545,-9.841498 2.90515,0.914773 5.40642,3.109469 8.17501,4.463767 3.80004,1.485833 4.0283,5.729918 3.83034,9.18592 -0.64151,3.403657 4.86762,4.205051 3.49526,7.175289 -1.30624,2.718289 -2.2211,5.511654 -0.99651,8.480335 -0.21816,2.146861 3.66665,5.306352 2.57956,6.218765 l -0.62112,-0.101563 z M 126.47649,29.169445 c -1.92298,-1.731731 1.57503,1.836442 0,0 z m -11.53045,29.12738 c -1.26673,-1.05372 -0.42164,-2.523642 0.91847,-1.266256 0.29164,0.514605 -0.18606,2.134189 -0.91847,1.266256 z m 6.46102,0.0044 c -1.58608,-1.318723 -0.0876,-3.109604 1.12731,-1.39417 0.28018,0.565913 -0.39047,2.273061 -1.12731,1.39417 z m -8.24298,-3.118773 c 0.51298,-2.416299 5.7631,-0.186453 1.69961,-0.442636 -0.60218,-0.116358 -1.18854,0.492437 -1.69961,0.442636 z m 6.11606,-0.353508 c 0.89469,-2.692075 7.65087,0.638509 2.82352,-0.415646 -0.90864,-0.461589 -2.35564,1.313072 -2.82352,0.415646 z m 21.14059,-11.097533 c -3.12846,-2.467602 -0.91916,-6.908122 -2.65128,-10.048005 2.25308,0.855714 4.91822,2.883512 7.31638,4.190849 2.18948,0.758659 6.88604,4.208185 2.28361,5.305768 -2.28545,-0.214922 -5.4723,2.854551 -6.94871,0.551388 z" />
        <path
           id="path867"
           style="fill:#0d2649;stroke-width:1"
           d="m 102.26001,100.99265 c -0.52264,-1.298489 0.90308,-4.29795 -1.47515,-3.623526 -5.298315,-0.02089 -10.596633,-0.04178 -15.894951,-0.06267 -0.846584,-1.69326 -0.455015,-2.782143 1.515184,-2.347718 3.503531,-0.0178 6.9778,-1.013203 10.059647,-2.599231 0.598122,1.788909 1.643242,4.501524 2.614128,1.226145 3.532592,-6.340084 7.042742,-13.06612 12.899702,-17.593629 0.35296,-1.710968 5.78468,-4.13634 2.89114,-1.117567 -4.40053,6.448078 -6.64257,14.365966 -6.53302,22.149967 -0.22825,4.309581 7.04468,4.375011 7.09754,0.19482 0.60718,-5.839026 0.80757,-11.871055 2.87411,-17.418758 0.23166,3.786056 5.04357,3.806342 7.90841,2.909916 1.59284,0.33747 -1.70997,4.126844 -2.03458,6.012193 -1.35589,3.4889 -2.7244,7.068243 -3.24937,10.774601 1.94987,3.178109 6.40644,-0.223454 8.22683,-0.261107 0.83153,1.922476 -0.41874,2.058526 -1.98094,1.844856 -8.30604,-0.0204 -16.61431,0.0598 -24.91868,-0.0883 z M 84.756095,94.076035 c -1.257579,-1.2032 -1.328409,-4.689663 1.419366,-3.292678 3.179871,0.451055 6.338557,-0.753071 9.20619,-1.50846 1.651798,4.007369 -5.610029,4.134552 -8.226715,4.837301 -0.797622,0.0647 -1.604969,0.08117 -2.398841,-0.03616 z M 115.04014,58.079502 c -1.06033,-2.557433 1.95961,-0.46743 0.13893,0.173147 z m 6.47735,0.03707 c -2.03311,-2.945097 2.6193,-1.198829 0.18521,0.152851 z m 17.17652,-7.428438 c -3.70122,-2.84422 -8.30361,-4.058345 -12.72409,-5.174347 -1.01526,-3.5509 -5.15526,-4.467577 -8.38536,-3.893867 -2.13785,-0.08329 -4.80991,2.192996 -5.01951,-0.250587 -2.67635,-1.23131 -5.44652,-2.286016 -8.01358,-3.734169 0.97041,-2.948772 5.92924,-3.372357 8.58763,-5.176842 4.34494,-1.898839 8.5668,-4.150114 13.00727,-5.790779 3.32682,1.721116 6.67912,3.588431 9.63546,5.906931 2.78142,2.189924 1.44482,5.862456 2.06436,8.822582 0.67172,3.208468 5.85532,4.406737 2.86836,8.041667 -0.50196,0.895015 -0.74945,2.746201 -2.02054,1.249411 z m 1.82976,-7.118469 c -2.9588,-2.461241 -1.01932,-6.701048 -2.43165,-9.841123 3.70734,2.189364 7.50889,4.281545 11.03416,6.751339 1.00987,3.841793 -5.11981,2.694322 -7.31275,4.167995 -0.53256,-0.198202 -0.86687,-0.726404 -1.28976,-1.078211 z" />
      </g>
      <circle
         style="fill:#ffffff;fill-opacity:1;stroke:none;stroke-width:0.15875;stroke-linejoin:round"
         id="path852"
         cx="19.568813"
         cy="48.431705"
         r="5.0577216" />
      <g
         aria-label="A"
         transform="rotate(4.0874447,-4.8823885,-1.4646342)"
         id="text856"
         style="font-style:normal;font-weight:normal;font-size:6.35px;line-height:1.25;font-family:sans-serif;fill:#000000;fill-opacity:1;stroke:none;stroke-width:0.264583">
        <path
           d="m 116.1883,25.987738 h -1.23093 l -0.31936,-0.933277 h -1.71152 l -0.31936,0.933277 h -1.19993 l 1.70532,-4.616773 h 1.37046 z m -1.83864,-1.779737 -0.56741,-1.655713 -0.56741,1.655713 z"
           style="font-style:normal;font-variant:normal;font-weight:bold;font-stretch:normal;font-size:6.35px;font-family:sans-serif;-inkscape-font-specification:'sans-serif Bold';fill:#ffffff;fill-opacity:1;stroke-width:0.264583"
           id="path858" />
      </g>
      <g
         aria-label="+"
         id="text863"
         style="font-style:normal;font-weight:normal;font-size:4.23333px;line-height:1.25;font-family:sans-serif;fill:#000000;fill-opacity:1;stroke:none;stroke-width:0.264583">
        <path
           d="m 115.54213,31.097635 h -0.91812 v 0.909506 h -0.47198 v -0.909506 h -0.91812 v -0.461643 h 0.91812 v -0.909506 h 0.47198 v 0.909506 h 0.91812 z"
           style="font-style:normal;font-variant:normal;font-weight:bold;font-stretch:normal;font-size:3.52778px;font-family:sans-serif;-inkscape-font-specification:'sans-serif Bold';fill:#ffffff;fill-opacity:1;stroke-width:0.264583"
           id="path865" />
      </g>
      <path
         style="fill:#ffffff;fill-opacity:1;stroke:none;stroke-width:0.264583px;stroke-linecap:butt;stroke-linejoin:miter;stroke-opacity:1"
         d="m 85.108227,27.527132 c 0.149384,-0.186071 0.417628,-0.251368 0.643871,-0.3433 0.784283,-0.318691 1.59855,-0.62725 2.446714,-0.711116 0.574404,-0.0568 1.184048,-0.04388 1.725577,0.147127 0.138503,0.04885 0.306253,0.11444 0.360568,0.245213 0.08049,0.193788 -0.03221,0.426023 -0.128777,0.613031 -0.155721,0.301543 -0.438726,0.529516 -0.69538,0.760161 -0.24476,0.219956 -0.488612,0.463243 -0.798399,0.588511 -0.439174,0.177588 -0.939501,0.206516 -1.416519,0.196171 -0.45448,-0.0099 -0.922429,-0.07248 -1.339253,-0.245213 -0.253486,-0.105049 -0.500103,-0.257984 -0.669628,-0.465905 -0.113397,-0.13908 -0.193515,-0.314761 -0.206037,-0.490424 -0.0072,-0.100872 0.01278,-0.213931 0.07726,-0.294256 z"
         id="path868"
         sodipodi:nodetypes="aaaaaaaaaaaaa" />
    </g>
  </g>
</svg>
